# xmcd CD database file
#
# Track frame offsets:
#	150
#	27593
#	62294
#	98500
#	130163
#	166957
#	201522
#	226853
#
# Disc length: 3630 seconds
#
# Revision: 0
# Processed by: cddbd v1.5.2PL0 Copyright (c) Steve Scherf et al.
# Submitted via: CDex 1.51
#
DISCID=600e2c08
DTITLE=Shajan - Ocean of Silence - Music for reiki and meditation
DYEAR=2008
DGENRE=New Age
TTITLE0=Still waters
TTITLE1=Deep blue
TTITLE2=Dolphins and dreams
TTITLE3=Voices of the whales
TTITLE4=Magic island
TTITLE5=Pacific coast
TTITLE6=Seaclouds
TTITLE7=Ocean of emotion
EXTD=YEAR: 2008
EXTT0=
EXTT1=
EXTT2=
EXTT3=
EXTT4=
EXTT5=
EXTT6=
EXTT7=
PLAYORDER=
